<svg xmlns="http://www.w3.org/2000/svg" xmlns:xlink="http://www.w3.org/1999/xlink" width="512" height="512" x="0" y="0" viewBox="0 0 66 66" style="enable-background:new 0 0 512 512" xml:space="preserve" class=""><g><path d="M61.4 59c-1 0-1.9-.4-2.6-1.1l-9.6-10.3c-.4-.4-.4-1 0-1.4s1-.4 1.4 0l9.6 10.3c.3.3.6.5 1 .5s.7-.1 1-.4c.2-.3.4-.7.4-1.1s-.2-.7-.4-1L52 44.9c-.4-.4-.4-1 0-1.4s1-.4 1.4 0l10.3 9.6c.7.6 1.1 1.5 1.1 2.4s-.3 1.8-.9 2.5c-.7.6-1.6 1-2.5 1z" fill="#f95800" opacity="1" data-original="#000000" class=""/><path d="M44 49.2c-6.1 0-11-4.9-11-11s4.9-11 11-11 11 4.9 11 11-4.9 11-11 11zm0-20c-5 0-9 4-9 9s4 9 9 9 9-4 9-9-4-9-9-9z" fill="#f95800" opacity="1" data-original="#000000" class=""/><path d="M44 44.9c-1.7 0-3.4-.6-4.7-1.9-.4-.4-.4-1 0-1.4s1-.4 1.4 0c1.8 1.8 4.8 1.8 6.6 0 .4-.4 1-.4 1.4 0s.4 1 0 1.4c-1.3 1.2-3 1.9-4.7 1.9zM51.4 53.7c-.6 0-1-.4-1-1v-4.3c0-.6.4-1 1-1s1 .4 1 1v4.3c0 .6-.4 1-1 1z" fill="#f95800" opacity="1" data-original="#000000" class=""/><path d="M39.8 65H6.2c-2.8 0-5-2.2-5-5V6c0-2.8 2.2-5 5-5h41.2c2.8 0 5 2.2 5 5v25.1c0 .6-.4 1-1 1s-1-.4-1-1V6c0-1.7-1.3-3-3-3H6.2c-1.7 0-3 1.3-3 3v54c0 1.7 1.3 3 3 3h33.6c.6 0 1 .4 1 1s-.4 1-1 1z" fill="#f95800" opacity="1" data-original="#000000" class=""/><path d="M40 65c-.7 0-1.1-.4-1.1-1v-7.6c0-2.6 2.1-4.7 4.7-4.7h7.7c.4 0 .8.2.9.6.2.4.1.8-.2 1.1L40.7 64.7c-.2.2-.4.3-.7.3zm3.6-11.3c-1.5 0-2.7 1.2-2.7 2.7v5.3l8-8zM13.3 14.1H7.1c-.6 0-1-.4-1-1V6.9c0-.6.4-1 1-1h6.2c.6 0 1 .4 1 1v6.2c0 .6-.4 1-1 1zm-5.2-2h4.2V7.9H8.1zM13.3 24.6H7.1c-.6 0-1-.4-1-1v-6.2c0-.6.4-1 1-1h6.2c.6 0 1 .4 1 1v6.2c0 .6-.4 1-1 1zm-5.2-2h4.2v-4.2H8.1zM13.3 35.1H7.1c-.6 0-1-.4-1-1v-6.2c0-.6.4-1 1-1h6.2c.6 0 1 .4 1 1v6.2c0 .6-.4 1-1 1zm-5.2-2h4.2v-4.2H8.1zM13.3 45.6H7.1c-.6 0-1-.4-1-1v-6.2c0-.6.4-1 1-1h6.2c.6 0 1 .4 1 1v6.2c0 .6-.4 1-1 1zm-5.2-2h4.2v-4.2H8.1zM26.6 61c-4 0-7.3-3.3-7.3-7.3s3.3-7.3 7.3-7.3 7.3 3.3 7.3 7.3-3.3 7.3-7.3 7.3zm0-12.6c-3 0-5.3 2.3-5.3 5.3s2.3 5.3 5.3 5.3 5.3-2.3 5.3-5.3c0-2.9-2.4-5.3-5.3-5.3z" fill="#f95800" opacity="1" data-original="#000000" class=""/><path d="M25.4 56.7c-.3 0-.5-.1-.7-.3l-1.8-1.8c-.4-.4-.4-1 0-1.4s1-.4 1.4 0l1.1 1.1 3.4-3.4c.4-.4 1-.4 1.4 0s.4 1 0 1.4l-4.1 4.1c-.2.2-.4.3-.7.3zM32.8 9H17.1c-.6 0-1-.4-1-1s.4-1 1-1h15.7c.6 0 1 .4 1 1s-.4 1-1 1zM46.5 13H17.1c-.6 0-1-.4-1-1s.4-1 1-1h29.4c.6 0 1 .4 1 1s-.4 1-1 1zM32.8 19.5H17.1c-.6 0-1-.4-1-1s.4-1 1-1h15.7c.6 0 1 .4 1 1s-.4 1-1 1zM46.5 23.5H17.1c-.6 0-1-.4-1-1s.4-1 1-1h29.4c.6 0 1 .4 1 1s-.4 1-1 1zM32.1 30h-15c-.6 0-1-.4-1-1s.4-1 1-1h15c.6 0 1 .4 1 1s-.4 1-1 1zM29.5 34H17.1c-.6 0-1-.4-1-1s.4-1 1-1h12.4c.6 0 1 .4 1 1s-.4 1-1 1zM29.2 40.5H17.1c-.6 0-1-.4-1-1s.4-1 1-1h12.1c.6 0 1 .4 1 1s-.4 1-1 1zM30.4 44.5H17.1c-.6 0-1-.4-1-1s.4-1 1-1h13.3c.6 0 1 .4 1 1s-.4 1-1 1zM61.4 59c-1 0-1.9-.4-2.6-1.1l-9.6-10.3c-.4-.4-.4-1 0-1.4s1-.4 1.4 0l9.6 10.3c.3.3.6.5 1 .5s.7-.1 1-.4c.2-.3.4-.7.4-1.1s-.2-.7-.4-1L52 44.9c-.4-.4-.4-1 0-1.4s1-.4 1.4 0l10.3 9.6c.7.6 1.1 1.5 1.1 2.4s-.3 1.8-.9 2.5c-.7.6-1.6 1-2.5 1z" fill="#f95800" opacity="1" data-original="#000000" class=""/><path d="M44 49.2c-6.1 0-11-4.9-11-11s4.9-11 11-11 11 4.9 11 11-4.9 11-11 11zm0-20c-5 0-9 4-9 9s4 9 9 9 9-4 9-9-4-9-9-9z" fill="#f95800" opacity="1" data-original="#000000" class=""/><path d="M44 44.9c-1.7 0-3.4-.6-4.7-1.9-.4-.4-.4-1 0-1.4s1-.4 1.4 0c1.8 1.8 4.8 1.8 6.6 0 .4-.4 1-.4 1.4 0s.4 1 0 1.4c-1.3 1.2-3 1.9-4.7 1.9zM51.4 53.7c-.6 0-1-.4-1-1v-4.3c0-.6.4-1 1-1s1 .4 1 1v4.3c0 .6-.4 1-1 1z" fill="#f95800" opacity="1" data-original="#000000" class=""/><path d="M39.8 65H6.2c-2.8 0-5-2.2-5-5V6c0-2.8 2.2-5 5-5h41.2c2.8 0 5 2.2 5 5v25.1c0 .6-.4 1-1 1s-1-.4-1-1V6c0-1.7-1.3-3-3-3H6.2c-1.7 0-3 1.3-3 3v54c0 1.7 1.3 3 3 3h33.6c.6 0 1 .4 1 1s-.4 1-1 1z" fill="#f95800" opacity="1" data-original="#000000" class=""/><path d="M40 65c-.7 0-1.1-.4-1.1-1v-7.6c0-2.6 2.1-4.7 4.7-4.7h7.7c.4 0 .8.2.9.6.2.4.1.8-.2 1.1L40.7 64.7c-.2.2-.4.3-.7.3zm3.6-11.3c-1.5 0-2.7 1.2-2.7 2.7v5.3l8-8zM13.3 14.1H7.1c-.6 0-1-.4-1-1V6.9c0-.6.4-1 1-1h6.2c.6 0 1 .4 1 1v6.2c0 .6-.4 1-1 1zm-5.2-2h4.2V7.9H8.1zM13.3 24.6H7.1c-.6 0-1-.4-1-1v-6.2c0-.6.4-1 1-1h6.2c.6 0 1 .4 1 1v6.2c0 .6-.4 1-1 1zm-5.2-2h4.2v-4.2H8.1zM13.3 35.1H7.1c-.6 0-1-.4-1-1v-6.2c0-.6.4-1 1-1h6.2c.6 0 1 .4 1 1v6.2c0 .6-.4 1-1 1zm-5.2-2h4.2v-4.2H8.1zM13.3 45.6H7.1c-.6 0-1-.4-1-1v-6.2c0-.6.4-1 1-1h6.2c.6 0 1 .4 1 1v6.2c0 .6-.4 1-1 1zm-5.2-2h4.2v-4.2H8.1zM26.6 61c-4 0-7.3-3.3-7.3-7.3s3.3-7.3 7.3-7.3 7.3 3.3 7.3 7.3-3.3 7.3-7.3 7.3zm0-12.6c-3 0-5.3 2.3-5.3 5.3s2.3 5.3 5.3 5.3 5.3-2.3 5.3-5.3c0-2.9-2.4-5.3-5.3-5.3z" fill="#f95800" opacity="1" data-original="#000000" class=""/><path d="M25.4 56.7c-.3 0-.5-.1-.7-.3l-1.8-1.8c-.4-.4-.4-1 0-1.4s1-.4 1.4 0l1.1 1.1 3.4-3.4c.4-.4 1-.4 1.4 0s.4 1 0 1.4l-4.1 4.1c-.2.2-.4.3-.7.3zM32.8 9H17.1c-.6 0-1-.4-1-1s.4-1 1-1h15.7c.6 0 1 .4 1 1s-.4 1-1 1zM46.5 13H17.1c-.6 0-1-.4-1-1s.4-1 1-1h29.4c.6 0 1 .4 1 1s-.4 1-1 1zM32.8 19.5H17.1c-.6 0-1-.4-1-1s.4-1 1-1h15.7c.6 0 1 .4 1 1s-.4 1-1 1zM46.5 23.5H17.1c-.6 0-1-.4-1-1s.4-1 1-1h29.4c.6 0 1 .4 1 1s-.4 1-1 1zM32.1 30h-15c-.6 0-1-.4-1-1s.4-1 1-1h15c.6 0 1 .4 1 1s-.4 1-1 1zM29.5 34H17.1c-.6 0-1-.4-1-1s.4-1 1-1h12.4c.6 0 1 .4 1 1s-.4 1-1 1zM29.2 40.5H17.1c-.6 0-1-.4-1-1s.4-1 1-1h12.1c.6 0 1 .4 1 1s-.4 1-1 1zM30.4 44.5H17.1c-.6 0-1-.4-1-1s.4-1 1-1h13.3c.6 0 1 .4 1 1s-.4 1-1 1z" fill="#f95800" opacity="1" data-original="#000000" class=""/></g></svg>