<svg xmlns="http://www.w3.org/2000/svg" width="28" height="28" viewBox="0 0 28 28" fill="none"><g clip-path="url(#clip0_4847_5222)"><path d="M21.2871 18.5218C20.3724 17.6187 19.2304 17.6187 18.3214 18.5218C17.6281 19.2094 16.9347 19.8969 16.253 20.5961C16.0666 20.7884 15.9093 20.8291 15.682 20.701C15.2334 20.4562 14.7556 20.2581 14.3244 19.9901C12.3143 18.7258 10.6304 17.1002 9.13882 15.2706C8.39885 14.3617 7.74045 13.3887 7.28016 12.2933C7.18693 12.0719 7.20441 11.9262 7.38503 11.7456C8.07839 11.0755 8.75427 10.388 9.43597 9.70047C10.3857 8.74491 10.3857 7.62622 9.43015 6.66484C8.88828 6.11715 8.34641 5.58111 7.80454 5.03341C7.2452 4.47406 6.69167 3.90889 6.1265 3.35537C5.21173 2.46391 4.06973 2.46391 3.16079 3.3612C2.46161 4.04873 1.79156 4.75374 1.08072 5.42962C0.422323 6.05305 0.0902101 6.81633 0.0202916 7.70779C-0.0904125 9.1586 0.265006 10.5278 0.766088 11.8621C1.79156 14.6239 3.35307 17.0769 5.24669 19.3259C7.80454 22.3674 10.8576 24.7737 14.4293 26.51C16.0374 27.2908 17.7038 27.8909 19.5159 27.99C20.7628 28.0599 21.8465 27.7452 22.7146 26.7722C23.309 26.108 23.979 25.502 24.6083 24.8669C25.5405 23.923 25.5463 22.781 24.6199 21.8488C23.5129 20.7359 22.4 19.6289 21.2871 18.5218Z" fill="#C09A44"></path><path d="M20.1753 13.8791L22.3253 13.512C21.9874 11.5368 21.0551 9.74807 19.6393 8.3264C18.1419 6.82898 16.2483 5.88508 14.1624 5.59375L13.8594 7.7554C15.4733 7.98263 16.9416 8.71095 18.1011 9.87043C19.1965 10.9658 19.9131 12.3525 20.1753 13.8791Z" fill="#C09A44"></path><path d="M23.533 4.53304C21.0509 2.05094 17.9104 0.483602 14.4436 0L14.1406 2.16164C17.1355 2.58116 19.8506 3.93874 21.9948 6.07708C24.0283 8.11054 25.3625 10.68 25.8461 13.5059L27.9961 13.1388C27.431 9.86433 25.8869 6.89279 23.533 4.53304Z" fill="#C09A44"></path></g><defs><clipPath id="clip0_4847_5222"><rect width="28" height="28" fill="white"></rect></clipPath></defs></svg>