<svg xmlns="http://www.w3.org/2000/svg" width="12" height="21" viewBox="0 0 12 21" fill="none" class=""><path d="M7.41221 20.2578H4.02645C3.46092 20.2578 3.00089 19.8226 3.00089 19.2877V12.0635H1.02557C0.460037 12.0635 0 11.6282 0 11.0934V7.99783C0 7.46286 0.460037 7.02768 1.02557 7.02768H3.00089V5.47754C3.00089 3.94052 3.51109 2.63284 4.47617 1.69611C5.4456 0.755096 6.80039 0.257812 8.39406 0.257812L10.9762 0.26178C11.5408 0.262695 12 0.697876 12 1.23193V4.10608C12 4.64105 11.5401 5.07623 10.9748 5.07623L9.23623 5.07684C8.70602 5.07684 8.57101 5.1774 8.54214 5.20822C8.49456 5.25934 8.43794 5.40384 8.43794 5.80286V7.02753H10.8441C11.0252 7.02753 11.2007 7.06979 11.3516 7.14944C11.6769 7.32141 11.8792 7.64658 11.8792 7.99799L11.8779 11.0935C11.8779 11.6282 11.4179 12.0634 10.8523 12.0634H8.43794V19.2877C8.43794 19.8226 7.97774 20.2578 7.41221 20.2578ZM4.24034 19.0853H7.19832V11.5386C7.19832 11.1814 7.5056 10.8909 7.88305 10.8909H10.6384L10.6396 8.20016H7.88289C7.50544 8.20016 7.19832 7.90964 7.19832 7.55243V5.80286C7.19832 5.34479 7.24752 4.82385 7.61303 4.43231C8.05468 3.95898 8.75071 3.90436 9.23591 3.90436L10.7605 3.90375V1.43396L8.3931 1.4303C5.83192 1.4303 4.24034 2.9812 4.24034 5.47754V7.55243C4.24034 7.90948 3.93322 8.20016 3.55577 8.20016H1.23945V10.8909H3.55577C3.93322 10.8909 4.24034 11.1814 4.24034 11.5386V19.0853Z" fill="#491D0B"/></svg>