<svg xmlns="http://www.w3.org/2000/svg" width="20" height="21" viewBox="0 0 20 21" fill="none"><g clip-path="url(#clip0_3833_3340)"><path d="M14.5862 0.257812H5.41381C2.42858 0.257812 0 2.6864 0 5.67162V14.8441C0 17.8292 2.42858 20.2578 5.41381 20.2578H14.5863C17.5714 20.2578 20 17.8292 20 14.8441V5.67162C20 2.6864 17.5714 0.257812 14.5862 0.257812ZM18.8275 14.8441C18.8275 17.1827 16.9249 19.0853 14.5862 19.0853H5.41381C3.0751 19.0853 1.17248 17.1827 1.17248 14.8441V5.67162C1.17248 3.33291 3.0751 1.4303 5.41381 1.4303H14.5863C16.9249 1.4303 18.8275 3.33291 18.8275 5.67162V14.8441Z" fill="#491D0B"/><path d="M9.99996 4.78931C6.98452 4.78931 4.53137 7.24246 4.53137 10.2579C4.53137 13.2733 6.98452 15.7265 9.99996 15.7265C13.0154 15.7265 15.4685 13.2733 15.4685 10.2579C15.4685 7.24246 13.0154 4.78931 9.99996 4.78931ZM9.99996 14.554C7.63119 14.554 5.70386 12.6268 5.70386 10.2579C5.70386 7.88912 7.63119 5.96179 9.99996 5.96179C12.3689 5.96179 14.2961 7.88912 14.2961 10.2579C14.2961 12.6268 12.3689 14.554 9.99996 14.554Z" fill="#491D0B"/><path d="M15.6003 2.84668C14.7092 2.84668 13.9844 3.57162 13.9844 4.46258C13.9844 5.35369 14.7092 6.07864 15.6003 6.07864C16.4914 6.07864 17.2163 5.35369 17.2163 4.46258C17.2163 3.57147 16.4914 2.84668 15.6003 2.84668ZM15.6003 4.906C15.3558 4.906 15.1569 4.70703 15.1569 4.46258C15.1569 4.21798 15.3558 4.01916 15.6003 4.01916C15.8449 4.01916 16.0438 4.21798 16.0438 4.46258C16.0438 4.70703 15.8449 4.906 15.6003 4.906Z" fill="#491D0B"/></g><defs><clipPath id="clip0_3833_3340"><rect width="20" height="20" fill="white" transform="translate(0 0.257812)"/></clipPath></defs></svg>