<svg xmlns="http://www.w3.org/2000/svg" width="20" height="21" viewBox="0 0 20 21" fill="none"><g clip-path="url(#clip0_3833_3348)"><path d="M4.70306 6.53418H0.9375C0.613861 6.53418 0.351562 6.79663 0.351562 7.12012V19.6723C0.351562 19.9959 0.613861 20.2582 0.9375 20.2582H4.70306C5.0267 20.2582 5.289 19.9959 5.289 19.6723V7.12012C5.289 6.79663 5.0267 6.53418 4.70306 6.53418ZM4.11713 19.0864H1.52344V7.70605H4.11713V19.0864Z" fill="#491D0B"/><path d="M2.82043 0.257812C1.45905 0.257812 0.351562 1.3653 0.351562 2.72638C0.351562 4.08777 1.45905 5.1951 2.82043 5.1951C4.18167 5.1951 5.289 4.08762 5.289 2.72638C5.289 1.3653 4.18167 0.257812 2.82043 0.257812ZM2.82043 4.02322C2.10526 4.02322 1.52344 3.44156 1.52344 2.72638C1.52344 2.01135 2.10526 1.42969 2.82043 1.42969C3.53546 1.42969 4.11713 2.01135 4.11713 2.72638C4.11713 3.44156 3.53546 4.02322 2.82043 4.02322Z" fill="#491D0B"/><path d="M14.119 6.45117C13.2283 6.45117 12.3505 6.66586 11.5644 7.06747C11.5377 6.76855 11.2867 6.53403 10.9807 6.53403H7.21484C6.89136 6.53403 6.62891 6.79648 6.62891 7.11996V19.6721C6.62891 19.9958 6.89136 20.2581 7.21484 20.2581H10.9807C11.3044 20.2581 11.5667 19.9958 11.5667 19.6721V12.7685C11.5667 11.8804 12.2893 11.1579 13.1774 11.1579C14.0654 11.1579 14.7878 11.8804 14.7878 12.7685V19.6721C14.7878 19.9958 15.0502 20.2581 15.3737 20.2581H19.1394C19.4631 20.2581 19.7254 19.9958 19.7254 19.6721V12.0576C19.7254 8.96613 17.2104 6.45117 14.119 6.45117ZM18.5535 19.0862H15.9598V12.7685C15.9598 11.2342 14.7116 9.98602 13.1775 9.98602C11.6431 9.98602 10.3948 11.2342 10.3948 12.7685V19.0862H7.80093V7.7059H10.3948V8.13879C10.3948 8.36417 10.524 8.56955 10.7273 8.66705C10.9304 8.76456 11.1714 8.73679 11.3474 8.59595C12.1408 7.9595 13.0994 7.62305 14.119 7.62305C16.5642 7.62305 18.5535 9.61234 18.5535 12.0576V19.0862Z" fill="#491D0B"/></g><defs><clipPath id="clip0_3833_3348"><rect width="20" height="20" fill="white" transform="translate(0 0.257812)"/></clipPath></defs></svg>