<svg xmlns="http://www.w3.org/2000/svg" width="28" height="28" viewBox="0 0 28 28" fill="none"><path d="M13.9999 0C8.40839 0 3.85938 4.54902 3.85938 10.1405C3.85938 17.0797 12.9342 27.2668 13.3205 27.6971C13.6834 28.1013 14.317 28.1006 14.6793 27.6971C15.0657 27.2668 24.1405 17.0797 24.1405 10.1405C24.1403 4.54902 19.5914 0 13.9999 0ZM13.9999 15.2424C11.1867 15.2424 8.89801 12.9537 8.89801 10.1405C8.89801 7.32725 11.1867 5.03858 13.9999 5.03858C16.8131 5.03858 19.1018 7.32731 19.1018 10.1405C19.1018 12.9538 16.8131 15.2424 13.9999 15.2424Z" fill="#C09A44"></path></svg>