<svg xmlns="http://www.w3.org/2000/svg" width="28" height="28" viewBox="0 0 28 28" fill="none"><path d="M16.34 17.1546C15.6434 17.619 14.8343 17.8645 14 17.8645C13.1658 17.8645 12.3566 17.619 11.66 17.1546L0.18643 9.50528C0.122773 9.46284 0.0607578 9.4186 0 9.3731V21.9073C0 23.3444 1.16621 24.4849 2.57759 24.4849H25.4224C26.8594 24.4849 27.9999 23.3187 27.9999 21.9073V9.37305C27.9391 9.41866 27.877 9.46301 27.8131 9.5055L16.34 17.1546Z" fill="#C09A44"></path><path d="M1.09648 8.1398L12.5701 15.7892C13.0044 16.0787 13.5022 16.2235 13.9999 16.2235C14.4978 16.2235 14.9956 16.0787 15.4299 15.7892L26.9035 8.1398C27.5901 7.68234 28 6.91671 28 6.09038C28 4.66955 26.8441 3.51367 25.4233 3.51367H2.57671C1.15593 3.51373 0 4.6696 0 6.09175C0 6.91671 0.409937 7.68234 1.09648 8.1398Z" fill="#C09A44"></path></svg>