<svg xmlns="http://www.w3.org/2000/svg" width="20" height="21" viewBox="0 0 20 21" fill="none"><g clip-path="url(#clip0_3833_3345)"><path d="M13.0767 9.35913L8.6582 6.94153C8.40414 6.80252 8.10385 6.80771 7.85483 6.95526C7.60565 7.10297 7.45703 7.36389 7.45703 7.65351V12.4472C7.45703 12.7354 7.60474 12.9959 7.85223 13.1438C7.98147 13.221 8.12475 13.2597 8.26834 13.2597C8.39987 13.2597 8.5317 13.2272 8.65301 13.1619L13.0716 10.786C13.3339 10.6448 13.4977 10.3722 13.4989 10.0742C13.4999 9.77616 13.3382 9.50226 13.0767 9.35913ZM8.62905 11.8442V8.26142L11.9313 10.0684L8.62905 11.8442Z" fill="#491D0B"/><path d="M19.8528 6.25497L19.8519 6.24582C19.835 6.08484 19.6664 4.65295 18.9703 3.92465C18.1657 3.06802 17.2535 2.96396 16.8148 2.91406C16.7785 2.90994 16.7452 2.90613 16.7155 2.90216L16.6805 2.8985C14.0365 2.70624 10.0434 2.67999 10.0035 2.67984L9.99996 2.67969L9.99645 2.67984C9.95647 2.67999 5.96342 2.70624 3.29558 2.8985L3.26033 2.90216C3.23195 2.90598 3.20067 2.90948 3.16664 2.91345C2.73299 2.9635 1.83059 3.06772 1.02371 3.95532C0.360716 4.67584 0.169067 6.07706 0.149383 6.23453L0.147094 6.25497C0.141143 6.32196 0 7.91666 0 9.51761V11.0142C0 12.6151 0.141143 14.2098 0.147094 14.277L0.148162 14.287C0.165099 14.4454 0.333556 15.8511 1.02645 16.5797C1.78298 17.4076 2.73955 17.5172 3.25408 17.5761C3.33541 17.5854 3.40544 17.5933 3.4532 17.6017L3.49944 17.6081C5.02607 17.7534 9.81258 17.825 10.0155 17.8279L10.0216 17.828L10.0277 17.8279C10.0677 17.8277 14.0606 17.8015 16.7046 17.6092L16.7396 17.6055C16.773 17.6011 16.8105 17.5971 16.8517 17.5929C17.283 17.5471 18.1805 17.452 18.9762 16.5765C19.6392 15.8558 19.831 14.4546 19.8505 14.2973L19.8528 14.2768C19.8588 14.2097 20.0001 12.6151 20.0001 11.0142V9.51761C19.9999 7.91666 19.8588 6.32211 19.8528 6.25497ZM18.8279 11.0142C18.8279 12.496 18.6985 14.022 18.6863 14.1621C18.6366 14.548 18.4344 15.4345 18.1113 15.7856C17.6133 16.3336 17.1017 16.3879 16.7281 16.4274C16.683 16.4321 16.6412 16.4367 16.6033 16.4414C14.046 16.6264 10.2037 16.6548 10.0267 16.6558C9.82815 16.6529 5.11167 16.5807 3.63158 16.4433C3.55574 16.4309 3.4738 16.4214 3.38744 16.4117C2.94936 16.3615 2.34969 16.2928 1.88857 15.7856L1.87774 15.774C1.56036 15.4434 1.36398 14.6143 1.31408 14.1667C1.30477 14.0608 1.17202 12.5167 1.17202 11.0142V9.51761C1.17202 8.03751 1.30111 6.51315 1.31362 6.37018C1.37298 5.91562 1.57897 5.08279 1.88857 4.74619C2.40188 4.18161 2.9431 4.11905 3.30107 4.0777C3.33525 4.07373 3.36714 4.07007 3.39659 4.06625C5.99119 3.8804 9.86111 3.85278 9.99996 3.85172C10.1388 3.85263 14.0074 3.8804 16.5789 4.06625C16.6105 4.07022 16.645 4.07419 16.6821 4.07846C17.0503 4.12042 17.6067 4.1839 18.1175 4.72864L18.1222 4.73367C18.4396 5.06433 18.6359 5.90784 18.6858 6.36453C18.6947 6.46448 18.8279 8.01187 18.8279 9.51761V11.0142Z" fill="#491D0B"/></g><defs><clipPath id="clip0_3833_3345"><rect width="20" height="20" fill="white" transform="translate(0 0.257812)"/></clipPath></defs></svg>